# AST/ASF file generated using VICON BodyLanguage
# -----------------------------------------------
:version 1.10
:name VICON
:units
  mass 1.0
  length 0.45
  angle deg
:documentation
   .ast/.asf automatically generated from VICON data using
   VICON BodyBuilder and BodyLanguage model FoxedUp or BRILLIANT.MOD
:root
   order TX TY TZ RX RY RZ
   axis XYZ
   position 0 0 0  
   orientation 0 0 0 
:bonedata
  begin
     id 1 
     name lhipjoint
     direction 0.734343 -0.627749 0.258209 
     length 2.5437 
     axis 0 0 0  XYZ
  end
  begin
     id 2 
     name lfemur
     direction 0.34202 -0.939693 0  
     length 6.7391  
     axis 0 0 20  XYZ
    dof rx ry rz
    limits (-160.0 20.0)
           (-70.0 70.0)
           (-60.0 70.0)
  end
  begin
     id 3 
     name ltibia
     direction 0.34202 -0.939693 0   
     length 7.21536   
     axis 0 0 20   XYZ
    dof rx
    limits (-10.0 170.0)
  end
  begin
     id 4 
     name lfoot
     direction 0.0489572 -0.134509 0.989702   
     length 1.61313   
     axis -90 7.62852e-016 20   XYZ
    dof rx rz
    limits (-45.0 90.0)
           (-70.0 20.0)
  end
  begin
     id 5 
     name ltoes
     direction 1.53451e-011 -4.21692e-011 1   
     length 0.823104   
     axis -90 7.62852e-016 20   XYZ
    dof rx
    limits (-90.0 20.0)
  end
  begin
     id 6 
     name rhipjoint
     direction -0.746398 -0.615468 0.253157   
     length 2.59446  
     axis 0 0 0  XYZ 
  end
  begin
     id 7 
     name rfemur
     direction -0.34202 -0.939693 0   
     length 6.7075   
     axis 0 0 -20   XYZ
    dof rx ry rz
    limits (-160.0 20.0)
           (-70.0 70.0)
           (-70.0 60.0)
  end
  begin
     id 8 
     name rtibia
     direction -0.34202 -0.939693 0   
     length 7.27262   
     axis 0 0 -20   XYZ
    dof rx
    limits (-10.0 170.0)
 end
 begin
     id 9 
     name rfoot
     direction -0.0455203 -0.125066 0.991104   
     length 1.91095  
     axis -90 -7.62852e-016 -20   XYZ
    dof rx rz
    limits (-45.0 90.0)
           (-20.0 70.0)
  end
  begin
     id 10 
     name rtoes
     direction -1.53601e-011 -4.21913e-011 1   
     length 0.969037   
     axis -90 -7.62852e-016 -20   XYZ
    dof rx
    limits (-90.0 20.0)
  end
  begin
     id 11 
     name lowerback
     direction 0.0181546 0.999122 -0.0377542   
     length 1.99916   
     axis 0 0 0   XYZ
    dof rx ry rz
    limits (-20.0 45.0)
           (-30.0 30.0)
           (-30.0 30.0)
  end
  begin
     id 12 
     name upperback
     direction 0.0203486 0.99589 0.0882534   
     length 1.951   
     axis 0 0 0   XYZ
    dof rx ry rz
    limits (-20.0 45.0)
           (-30.0 30.0)
           (-30.0 30.0)
  end
  begin
     id 13 
     name thorax
     direction 0.0131685 0.994241 0.106355   
     length 1.97461   
     axis 0 0 0   XYZ
    dof rx ry rz
    limits (-20.0 45.0)
           (-30.0 30.0)
           (-30.0 30.0)
  end
  begin
     id 14 
     name lowerneck
     direction -0.0281395 0.999325 0.023617   
     length 1.7959   
     axis 0 0 0   XYZ
    dof rx ry rz
    limits (-20.0 45.0)
           (-30.0 30.0)
           (-30.0 30.0)
  end
  begin
     id 15 
     name upperneck
     direction 0.0288721 0.991984 -0.123019   
     length 1.79917   
     axis 0 0 0   XYZ
    dof rx ry rz
    limits (-20.0 45.0)
           (-30.0 30.0)
           (-30.0 30.0)
  end
  begin
     id 16
     name head
     direction 0.0133797 0.998944 -0.0439492  
     length 1.80902  
     axis 0 0 0   XYZ
    dof rx ry rz
    limits (-20.0 45.0)
           (-30.0 30.0)
           (-30.0 30.0)
  end
  begin
     id 17 
     name lclavicle
     direction 0.919195 0.377107 0.113449  
     length 3.17815  
     axis 0 0 0   XYZ
    dof ry rz
    limits (-20.0 10.0)
           (0.0 20.0)
  end
  begin
     id 18 
     name lhumerus
     direction 1 -4.48959e-011 2.13129e-027   
     length 4.84137   
     axis 180 -30 -90   XYZ
    dof rx ry rz
    limits (-60.0 90.0)
           (-90.0 90.0)
           (-90.0 90.0)
  end
  begin
     id 19
     name lradius
     direction 1 -4.48957e-011 -6.30627e-028   
     length 3.2452   
     axis 180 -30 -90   XYZ
    dof rx
    limits (-10.0 170.0)
  end
  begin
     id 20
     name lwrist
     direction 1 -4.4901e-011 9.13299e-027   
     length 1.6226   
     axis -6.84618e-015 90 90   XYZ
    dof ry
    limits (-180.0 0.0)
 end
  begin
     id 21 
     name lhand
     direction 1 -4.48816e-011 1.82293e-026   
     length 0.521221   
     axis -1.16502e-014 90 90   XYZ
    dof rx rz
    limits (-90.0 90.0)
           (-45.0 45.0)
  end
  begin
     id 22 
     name lfingers
     direction 1 -4.49108e-011 3.65687e-026   
     length 0.420221   
     axis -2.33008e-014 90 90   XYZ
    dof rx
    limits (0.0 90.0)
  end
  begin
     id 23
     name lthumb
     direction 0.707107 -6.34943e-011 0.707107   
     length 0.603356   
     axis -90 45 5.69224e-014   XYZ
    dof rx rz
    limits (-45.0 45.0)
           (-45.0 45.0)
  end
  begin
     id 24 
     name rclavicle
     direction -0.90847 0.38596 0.160368   
     length 3.12973  
     axis 0 0 0   XYZ 
    dof ry rz
    limits (-10.0 20.0)
           (-20.0 0.0)
  end
  begin
     id 25 
     name rhumerus
     direction -1 -4.48974e-011 4.47268e-028  
     length 4.72284   
     axis 180 30 90   XYZ
    dof rx ry rz
    limits (-90.0 60.0)
           (-90.0 90.0)
           (-90.0 90.0)
  end
  begin
     id 26 
     name rradius
     direction -1 -4.48969e-011 3.43203e-027   
     length 3.23459   
     axis 180 30 90   XYZ
    dof rx
    limits (-10.0 170.0)
  end
  begin
     id 27 
     name rwrist
     direction -1 -4.48969e-011 9.12911e-027   
     length 1.6173   
     axis -6.84618e-015 -90 -90   XYZ
    dof ry
    limits (-180.0 0.0)
  end
  begin
     id 28
     name rhand
     direction -1 -4.49194e-011 1.83006e-026   
     length 0.307416   
     axis -1.16502e-014 -90 -90   XYZ
    dof rx rz
    limits (-90.0 90.0)
           (-45.0 45.0)
  end
  begin
     id 29
     name rfingers
     direction -1 -4.48423e-011 3.63103e-026   
     length 0.247847   
     axis -2.33008e-014 -90 -90   XYZ
    dof rx
    limits (0.0 90.0)
  end
  begin
     id 30
     name rthumb
     direction -0.707107 -6.34802e-011 0.707107   
     length 0.35586   
     axis -90 -45 -5.69224e-014   XYZ
    dof rx rz
    limits (-45.0 45.0)
           (-45.0 45.0)
  end
:hierarchy
  begin
    root lhipjoint rhipjoint lowerback
    lhipjoint lfemur
    lfemur ltibia
    ltibia lfoot
    lfoot ltoes
    rhipjoint rfemur
    rfemur rtibia
    rtibia rfoot
    rfoot rtoes
    lowerback upperback
    upperback thorax
    thorax lowerneck lclavicle rclavicle
    lowerneck upperneck
    upperneck head
    lclavicle lhumerus
    lhumerus lradius
    lradius lwrist
    lwrist lhand lthumb
    lhand lfingers
    rclavicle rhumerus
    rhumerus rradius
    rradius rwrist
    rwrist rhand rthumb
    rhand rfingers
  end

#!OML:ASF H:\Terrain\Patient Classification 1\Animal1\Tuesday\Animal1.ASF
:FULLY-SPECIFIED
:DEGREES
377
root 11.14 15.989 -11.0567 6.95735 10.3422 -1.08162
lowerback 7.15017 3.02502 1.50086
upperback 4.95633 4.11172 -0.529622
thorax 1.26202 2.10767 -1.62079
lowerneck 1.79147 15.1503 1.09275
upperneck -28.9193 20.2213 -7.8513
head -8.38538 10.4205 -4.19448
rclavicle 6.20208e-014 1.98785e-016
rhumerus 5.78352 27.529 -65.6238
rradius 45.6732
rwrist -16.1638
rhand -17.3804 26.9239
rfingers 7.12502
rthumb 8.86824 -2.86975
lclavicle 6.20208e-014 1.98785e-016
lhumerus 10.0696 -32.8004 70.0954
lradius 53.6992
lwrist -27.9135
lhand 19.1456 35.6999
lfingers 7.12502
lthumb 43.7383 59.6797
rfemur -30.0963 3.62747 17.3003
rtibia 39.5002
rfoot -11.0107 -24.8407
rtoes 1.52215
lfemur -30.1358 -8.83825 -10.2451
ltibia 36.3886
lfoot -20.7581 16.6079
ltoes -15.1951
378
root 11.1553 15.9937 -11.0572 6.98327 10.0711 -1.03517
lowerback 7.29058 3.05329 1.29189
upperback 4.98693 4.13882 -0.604898
thorax 1.2079 2.11699 -1.59097
lowerneck 1.74317 15.1372 1.06626
upperneck -28.7711 20.2051 -7.78742
head -8.33697 10.4113 -4.15492
rclavicle 1.02846e-013 -4.1546e-014
rhumerus 5.93088 27.7406 -65.5637
rradius 45.6305
rwrist -16.1183
rhand -17.7066 26.7463
rfingers 7.12502
rthumb 8.55345 -3.06043
lclavicle 1.02846e-013 -4.1546e-014
lhumerus 9.86182 -32.6692 70.0322
lradius 54.0474
lwrist -27.8502
lhand 19.143 35.824
lfingers 7.12502
lthumb 43.7359 59.8046
rfemur -30.1003 3.7632 17.1731
rtibia 39.4023
rfoot -11.2199 -24.6673
rtoes 2.5195
lfemur -30.0591 -8.78261 -10.3576
ltibia 36.4069
lfoot -20.8042 16.8147
ltoes -15.0951
379
root 11.1708 15.9999 -11.0536 7.03627 9.77311 -1.05369
lowerback 7.29869 3.06466 1.15056
upperback 5.08198 4.1463 -0.711883
thorax 1.3002 2.12037 -1.61965
lowerneck 1.92318 15.1671 1.19122
upperneck -29.0669 20.2278 -7.98863
head -8.43087 10.4285 -4.27218
rclavicle 2.30155e-015 9.60689e-015
rhumerus 6.12011 28.0107 -65.547
rradius 45.7097
rwrist -16.2577
rhand -17.9165 26.6886
rfingers 7.12502
rthumb 8.3509 -3.12633
lclavicle 2.30155e-015 9.60689e-015
lhumerus 9.88715 -32.3395 69.8777
lradius 54.045
lwrist -27.9883
lhand 18.5867 35.3442
lfingers 7.12502
lthumb 43.2162 59.5132
rfemur -30.1237 3.85782 17.1221
rtibia 39.2453
rfoot -10.899 -24.5124
rtoes 1.81264
lfemur -30.001 -8.74298 -10.393
ltibia 36.393
lfoot -20.7778 16.9467
ltoes -14.2504
380
root 11.1882 16.0062 -11.0514 7.01296 9.54146 -1.17384
lowerback 7.25475 3.03997 1.1422
upperback 5.19764 4.11344 -0.790163
thorax 1.44864 2.1071 -1.68657
lowerneck 2.04655 15.2081 1.21536
upperneck -29.1561 20.3085 -7.93444
head -8.48418 10.4572 -4.28304
rclavicle -7.62339e-014 1.86858e-014
rhumerus 6.20017 28.0912 -65.7387
rradius 45.7602
rwrist -16.2323
rhand -17.9778 26.9081
rfingers 7.12502
rthumb 8.2918 -2.90912
lclavicle -7.62339e-014 1.86858e-014
lhumerus 10.1064 -32.0158 69.7357
lradius 53.6987
lwrist -28.268
lhand 17.9915 35.2492
lfingers 7.12502
lthumb 42.6596 59.6144
rfemur -30.0275 3.84366 17.2054
rtibia 39.0486
rfoot -10.3177 -24.3564
rtoes 0.229334
lfemur -29.9103 -8.61574 -10.365
ltibia 36.4095
lfoot -20.5179 16.8845
ltoes -13.3366
381
root 11.2033 16.0103 -11.0509 6.85286 9.3651 -1.21859
lowerback 7.3436 3.04751 1.00361
upperback 5.38238 4.11727 -0.806166
thorax 1.58292 2.10811 -1.62495
lowerneck 1.99983 15.2036 1.16737
upperneck -29.0828 20.3141 -7.85406
head -8.46592 10.4582 -4.24359
rclavicle 4.04278e-014 -1.95803e-014
rhumerus 6.36522 27.9773 -65.7536
rradius 45.7099
rwrist -16.1948
rhand -17.857 27.155
rfingers 7.12502
rthumb 8.40832 -2.65761
lclavicle 4.04278e-014 -1.95803e-014
lhumerus 10.3692 -31.7765 69.6892
lradius 53.4976
lwrist -28.4509
lhand 18.1991 35.4033
lfingers 7.12502
lthumb 42.8539 59.7007
rfemur -29.7239 3.78618 17.2316
rtibia 38.8138
rfoot -10.0818 -24.1621
rtoes -0.648843
lfemur -29.7137 -8.48359 -10.444
ltibia 36.5303
lfoot -20.5456 16.7608
ltoes -12.8833
382
root 11.2188 16.009 -11.0509 6.8327 9.16674 -1.31499
lowerback 7.39678 3.09023 0.915994
upperback 5.46755 4.16953 -0.814709
thorax 1.63837 2.13288 -1.58805
lowerneck 2.15566 15.138 1.29609
upperneck -29.1915 20.1771 -8.10048
head -8.49057 10.4065 -4.3493
rclavicle 1.02623e-014 -4.96962e-016
rhumerus 6.45576 27.9557 -65.7068
rradius 45.6742
rwrist -16.2919
rhand -18.1622 27.2983
rfingers 7.12502
rthumb 8.1138 -2.52589
lclavicle 1.02623e-014 -4.96962e-016
lhumerus 10.5449 -31.8805 69.5021
lradius 53.5898
lwrist -28.1336
lhand 18.6226 35.5321
lfingers 7.12502
lthumb 43.2499 59.6892
rfemur -29.6198 3.85245 17.2711
rtibia 38.5821
rfoot -9.9947 -24.0111
rtoes -0.705173
lfemur -29.7514 -8.36949 -10.4204
ltibia 36.7505
lfoot -20.7043 16.9786
ltoes -14.077
383
root 11.2362 16.0104 -11.0533 7.13682 9.02192 -1.70898
lowerback 7.16388 3.0613 1.20727
upperback 5.37798 4.14463 -0.812246
thorax 1.6939 2.12786 -1.73479
lowerneck 2.36356 15.1252 1.41563
upperneck -29.2153 20.1307 -8.25726
head -8.5032 10.3888 -4.42999
rclavicle 1.42628e-014 1.90833e-014
rhumerus 6.49413 28.1337 -65.8404
rradius 45.6358
rwrist -16.2711
rhand -18.4691 27.1349
rfingers 7.12502
rthumb 7.81759 -2.70061
lclavicle 1.42628e-014 1.90833e-014
lhumerus 10.4732 -31.7936 69.4189
lradius 53.6421
lwrist -27.9828
lhand 18.2135 35.6616
lfingers 7.12502
lthumb 42.8674 59.9542
rfemur -29.9489 4.01873 17.5913
rtibia 38.3814
rfoot -9.84533 -24.029
rtoes -0.913827
lfemur -30.2843 -8.11282 -10.0137
ltibia 37.0258
lfoot -20.7758 17.1093
ltoes -14.8518
384
root 11.2505 16.0087 -11.0566 7.32803 8.88966 -1.95951
lowerback 7.06888 3.01133 1.37577
upperback 5.36232 4.0863 -0.862132
thorax 1.74378 2.10443 -1.87141
lowerneck 2.32473 15.1409 1.32658
upperneck -29.081 20.1807 -8.07499
head -8.48047 10.4034 -4.35337
rclavicle 4.07509e-015 3.57812e-015
rhumerus 6.7154 28.3404 -65.938
rradius 45.5089
rwrist -16.2153
rhand -18.1636 26.6887
rfingers 7.12502
rthumb 8.11242 -3.13557
lclavicle 4.07509e-015 3.57812e-015
lhumerus 10.3169 -31.2929 69.5447
lradius 53.6575
lwrist -28.4342
lhand 18.1323 35.7598
lfingers 7.12502
lthumb 42.7914 60.079
rfemur -30.1273 4.04797 17.8114
rtibia 38.1829
rfoot -9.52911 -24.057
rtoes -1.77124
lfemur -30.6596 -7.84099 -9.77688
ltibia 37.3148
lfoot -20.8069 17.0508
ltoes -14.8956
385
root 11.2657 16.0013 -11.06 7.26339 8.65471 -1.94546
lowerback 7.28857 3.00323 1.24276
upperback 5.44841 4.07067 -0.95086
thorax 1.70861 2.09496 -1.89806
lowerneck 2.17309 15.1206 1.30462
upperneck -28.8875 20.1572 -7.98815
head -8.40104 10.3897 -4.29279
rclavicle -1.74931e-014 -2.0276e-014
rhumerus 6.93817 28.4771 -65.9652
rradius 45.4223
rwrist -16.2084
rhand -17.7696 26.2348
rfingers 7.12502
rthumb 8.49266 -3.57446
lclavicle -1.74931e-014 -2.0276e-014
lhumerus 10.2931 -30.9569 69.5441
lradius 53.7459
lwrist -28.7607
lhand 18.6238 36.0804
lfingers 7.12502
lthumb 43.251 60.2371
rfemur -29.9898 3.98874 17.784
rtibia 37.9665
rfoot -8.97965 -23.9566
rtoes -2.77396
lfemur -30.6504 -7.66711 -9.87629
ltibia 37.5858
lfoot -20.7889 16.927
ltoes -14.2818
386
root 11.2841 16.0014 -11.0651 7.14359 8.47316 -2.12451
lowerback 7.55919 2.95546 1.27716
upperback 5.49785 4.01049 -0.946388
thorax 1.6105 2.06535 -1.92382
lowerneck 2.22167 15.1869 1.41316
upperneck -28.855 20.2257 -8.11917
head -8.36627 10.4268 -4.34865
rclavicle -2.82274e-014 4.33351e-014
rhumerus 7.05444 28.6455 -66.0255
rradius 45.3804
rwrist -16.0512
rhand -17.8803 26.1004
rfingers 7.12502
rthumb 8.38583 -3.7131
lclavicle -2.82274e-014 4.33351e-014
lhumerus 10.3875 -30.7823 69.4537
lradius 53.6368
lwrist -28.7967
lhand 18.7993 36.557
lfingers 7.12502
lthumb 43.4149 60.6547
rfemur -29.8272 4.02179 17.9327
rtibia 37.7907
rfoot -8.6457 -23.8804
rtoes -4.20988
lfemur -30.6078 -7.56288 -9.77459
ltibia 37.7681
lfoot -20.7791 16.8079
ltoes -13.827
387
root 11.3024 16.0036 -11.0684 7.12478 8.37595 -2.32454
lowerback 7.72331 2.93827 1.37889
upperback 5.44426 3.9939 -0.939172
thorax 1.47047 2.0579 -1.98364
lowerneck 2.65255 15.2035 1.43244
upperneck -29.0295 20.2589 -8.13761
head -8.49545 10.4357 -4.41636
rclavicle 2.18663e-014 -3.37934e-015
rhumerus 6.9114 28.7632 -66.1607
rradius 45.3159
rwrist -15.7835
rhand -18.6602 26.9623
rfingers 7.12502
rthumb 7.63316 -2.87993
lclavicle 2.18663e-014 -3.37934e-015
lhumerus 10.3812 -30.7586 69.5194
lradius 53.4125
lwrist -28.7984
lhand 18.8355 36.7275
lfingers 7.12502
lthumb 43.4488 60.813
rfemur -29.8145 4.12782 18.0456
rtibia 37.6923
rfoot -8.67247 -23.8455
rtoes -5.30567
lfemur -30.6631 -7.51558 -9.61683
ltibia 37.8678
lfoot -20.9165 16.7181
ltoes -14.0976
388
root 11.318 16.0017 -11.0677 7.3236 8.16231 -2.07879
lowerback 7.67131 3.02692 1.03688
upperback 5.57839 4.0929 -1.1179
thorax 1.63202 2.10363 -1.97501
lowerneck 2.11661 15.0919 1.34046
upperneck -28.7349 20.1157 -7.96582
head -8.33856 10.3698 -4.27048
rclavicle -8.74653e-015 -3.77691e-015
rhumerus 7.06637 28.5016 -66.1786
rradius 45.2977
rwrist -15.6752
rhand -19.0257 28.2008
rfingers 7.12502
rthumb 7.28035 -1.65392
lclavicle -8.74653e-015 -3.77691e-015
lhumerus 10.8102 -30.7956 69.2986
lradius 53.3195
lwrist -28.5703
lhand 18.1304 36.4706
lfingers 7.12502
lthumb 42.7896 60.7905
rfemur -30.0341 4.28933 17.6517
rtibia 37.65
rfoot -8.44171 -23.8186
rtoes -5.40492
lfemur -30.8065 -7.4667 -9.91869
ltibia 37.9247
lfoot -21.1403 16.5329
ltoes -12.9308
389
root 11.3329 16.0026 -11.0675 7.57375 7.83176 -1.90864
lowerback 7.58781 3.1648 0.725936
upperback 5.58126 4.25834 -1.25849
thorax 1.67604 2.18005 -1.95076
lowerneck 2.05316 14.9521 1.41507
upperneck -28.5497 19.9156 -7.95698
head -8.26416 10.2715 -4.24619
rclavicle 3.0911e-014 -1.59028e-015
rhumerus 6.92442 28.2571 -66.2763
rradius 45.3669
rwrist -15.6617
rhand -18.3893 28.0631
rfingers 7.12502
rthumb 7.89456 -1.7695
lclavicle 3.0911e-014 -1.59028e-015
lhumerus 10.9855 -31.0412 69.1418
lradius 53.3089
lwrist -28.1332
lhand 16.8446 36.2343
lfingers 7.12502
lthumb 41.585 60.9619
rfemur -30.3677 4.41385 17.3857
rtibia 37.6821
rfoot -8.43336 -23.6201
rtoes -4.31866
lfemur -30.9522 -7.36414 -10.141
ltibia 37.9359
lfoot -21.1316 16.3917
ltoes -11.1187
